<?xml version="1.0" encoding="UTF-8"?>
<svg version="1.1" xmlns="http://www.w3.org/2000/svg" width="500" height="500">
<path d="M0 0 C165 0 330 0 500 0 C500 165 500 330 500 500 C335 500 170 500 0 500 C0 335 0 170 0 0 Z " fill="#FEFEFE" transform="translate(0,0)"/>
<path d="M0 0 C0 0.66 0 1.32 0 2 C-0.57363281 2.27070312 -1.14726562 2.54140625 -1.73828125 2.8203125 C-35.84110466 20.10459629 -73.50316741 54.82408266 -86.51171875 91.4453125 C-86.67285156 91.95835937 -86.83398438 92.47140625 -87 93 C-87.66 93 -88.32 93 -89 93 C-89.2475 94.27875 -89.495 95.5575 -89.75 96.875 C-90.72207958 101.29101864 -92.21314015 105.29923926 -94 109.4453125 C-96.38372136 115.53497566 -97.45021287 121.48277392 -98.125 127.9375 C-98.21136719 128.71673828 -98.29773438 129.49597656 -98.38671875 130.29882812 C-98.59651323 132.1986337 -98.79901994 134.09924174 -99 136 C-99.66 136 -100.32 136 -101 136 C-100.90598752 140.99909476 -100.79979077 145.99773227 -100.68261719 150.99633789 C-100.64448871 152.69450924 -100.60960854 154.39275692 -100.578125 156.09106445 C-100.53212178 158.54145467 -100.47418849 160.99132667 -100.4140625 163.44140625 C-100.40251129 164.19273331 -100.39096008 164.94406036 -100.37905884 165.71815491 C-100.24865633 170.44486568 -99.43455925 174.45734365 -98 179 C-97.72929327 180.38183893 -97.48621632 181.76982747 -97.2890625 183.1640625 C-97.18078125 183.88770996 -97.0725 184.61135742 -96.9609375 185.35693359 C-96.85007813 186.10539551 -96.73921875 186.85385742 -96.625 187.625 C-94.98230706 200.45266987 -94.98230706 200.45266987 -89.5625 211.7890625 C-87.99610513 214.00551124 -87.39113592 215.66780371 -86.59765625 218.23828125 C-85.10900674 222.95893066 -82.9980578 226.96799629 -80.4375 231.1875 C-79.99913818 231.9187207 -79.56077637 232.64994141 -79.10913086 233.40332031 C-64.18693542 257.95471599 -39.47622509 291.09664923 -10.64453125 299.703125 C-9.83048828 299.85007812 -9.83048828 299.85007812 -9 300 C-9 300.66 -9 301.32 -9 302 C-8.00419922 302.27263672 -8.00419922 302.27263672 -6.98828125 302.55078125 C-6.10527344 302.80214844 -5.22226563 303.05351562 -4.3125 303.3125 C-3.44238281 303.55613281 -2.57226562 303.79976563 -1.67578125 304.05078125 C1 305 1 305 3.47265625 306.515625 C6.25005524 308.14686397 8.60868196 308.7685156 11.75 309.4375 C15.56128254 310.31845339 18.88686835 311.29883793 22.375 313.0625 C27.31422613 315.44165105 32.35880534 315.91906991 37.765625 316.5078125 C41 317 41 317 43.296875 317.9921875 C53.0617645 321.63285439 65.31679891 320.32852656 75.625 320.5625 C77.41016462 320.60577574 79.19532101 320.64939263 80.98046875 320.69335938 C85.32022748 320.7995089 89.66007178 320.90103258 94 321 C94 320.34 94 319.68 94 319 C95.02996094 318.90203125 96.05992187 318.8040625 97.12109375 318.703125 C120.10330215 316.35666687 141.22347463 309.28027756 162.64575195 300.90625 C164.87210799 300.04923106 167.11102058 299.23780339 169.35546875 298.4296875 C173.09617267 296.9622731 175.98646281 295.18602625 179.23828125 292.890625 C179.81964844 292.59671875 180.40101563 292.3028125 181 292 C181.99 292.33 182.98 292.66 184 293 C161.12323819 315.18141951 134.01323262 331.45501963 103.16796875 340.0703125 C100.16292886 340.67727794 100.16292886 340.67727794 99 342 C83.44207782 345.36854506 67.61847683 346.39004735 51.75 346.3125 C51.03676575 346.30977081 50.32353149 346.30704163 49.58868408 346.30422974 C41.70294328 346.25592835 33.82823294 345.99886644 25.953125 345.58984375 C25.27401062 345.55812576 24.59489624 345.52640778 23.89520264 345.49372864 C16.34225189 345.05569374 9.22718153 343.11869541 2 341 C1.27184082 340.78762695 0.54368164 340.57525391 -0.20654297 340.35644531 C-3.18258155 339.48518991 -6.15738724 338.61078327 -9.12573242 337.71362305 C-12.671735 336.6475558 -16.16810299 335.71375506 -19.8125 335.0625 C-24.64938734 334.09324047 -28.78582184 331.75056394 -33.10546875 329.4375 C-36.01702849 327.9915432 -38.89698154 326.95618939 -42 326 C-42 325.34 -42 324.68 -42 324 C-42.69222656 323.90589844 -43.38445312 323.81179688 -44.09765625 323.71484375 C-59.7861657 319.85078288 -75.16644263 305.4474459 -86.47705078 294.47167969 C-87.92604109 293.07146911 -89.39802871 291.6951732 -90.87109375 290.3203125 C-100.60578538 281.01367114 -108.1589398 270.29563691 -115.125 258.8125 C-115.50350098 258.18891602 -115.88200195 257.56533203 -116.27197266 256.92285156 C-117.99030352 254.00801179 -119.4491179 251.36371949 -120 248 C-120.66 248 -121.32 248 -122 248 C-122.42410156 247.00097656 -122.84820312 246.00195312 -123.28515625 244.97265625 C-124.38553282 242.40209913 -125.51720022 239.84983401 -126.68359375 237.30859375 C-130.6050449 228.70306425 -133.74397661 220.21385255 -136 211 C-136.27585937 209.89398438 -136.55171875 208.78796875 -136.8359375 207.6484375 C-140.23549979 193.00675832 -141.18106399 178.680623 -141.25 163.6875 C-141.25926514 162.43646484 -141.26853027 161.18542969 -141.27807617 159.89648438 C-141.20502649 138.20502649 -141.20502649 138.20502649 -138 135 C-137.72244362 133.27915042 -137.44986374 131.55735899 -137.20166016 129.83203125 C-135.26027416 116.71534261 -131.24438631 103.29036132 -124.140625 91.984375 C-122.85370432 89.84197334 -122.85370432 89.84197334 -121.640625 86.7421875 C-116.49116704 74.49517905 -107.99078847 63.65195395 -99 54 C-98.37706055 53.32791504 -97.75412109 52.65583008 -97.11230469 51.96337891 C-87.5955962 41.80687243 -77.81201266 33.35120809 -66 26 C-65.32114746 25.56268555 -64.64229492 25.12537109 -63.94287109 24.67480469 C-60.30525337 22.34652436 -56.80389927 20.29309714 -52.75 18.75 C-51.94046875 18.43546875 -51.1309375 18.1209375 -50.296875 17.796875 C-48.21096102 17.07319056 -46.15064285 16.49326671 -44 16 C-44 15.34 -44 14.68 -44 14 C-42.85402344 13.60167969 -41.70804687 13.20335938 -40.52734375 12.79296875 C-38.99735102 12.25794062 -37.46740562 11.72277715 -35.9375 11.1875 C-35.18533203 10.92646484 -34.43316406 10.66542969 -33.65820312 10.39648438 C-30.20748313 9.18649165 -26.84295639 7.9315227 -23.48828125 6.46875 C-19.47257568 4.7779266 -15.43096674 3.52009161 -11.25 2.3125 C-10.49589844 2.08755859 -9.74179688 1.86261719 -8.96484375 1.63085938 C-5.88838639 0.73196553 -3.2219598 0 0 0 Z " fill="#9C9DA2" transform="translate(230,81)"/>
<path d="M0 0 C2.20706094 0.0108129 4.41332345 -0.00000698 6.62036133 -0.01269531 C8.04679539 -0.01137494 9.47322895 -0.00881508 10.8996582 -0.00488281 C12.16914307 -0.00262695 13.43862793 -0.00037109 14.74658203 0.00195312 C18.54902127 0.27277121 21.75007751 1.12770012 25.38012695 2.26074219 C26.94886357 2.57653893 28.52169857 2.87305423 30.09887695 3.14355469 C35.89246192 4.26765041 41.33297271 6.14881211 46.88012695 8.13574219 C47.84821289 8.47476563 48.81629883 8.81378906 49.8137207 9.16308594 C67.95703659 15.56804175 67.95703659 15.56804175 73.00512695 19.19824219 C77.04851861 22.03077859 81.17696628 24.67241981 85.38012695 27.26074219 C82.00380441 28.94890346 78.71168737 27.12836822 75.2043457 26.14746094 C64.45876691 23.6558916 53.95436711 22.88509372 42.94262695 22.94824219 C42.24658356 22.95072968 41.55054016 22.95321716 40.83340454 22.95578003 C4.99176047 23.15278243 -24.32153327 33.34225357 -50.61987305 58.26074219 C-51.51706055 59.09347656 -52.41424805 59.92621094 -53.33862305 60.78417969 C-60.50563449 67.64921032 -66.12393228 75.03168494 -71.61987305 83.26074219 C-72.18061523 84.09476562 -72.74135742 84.92878906 -73.3190918 85.78808594 C-75.34677371 88.9080435 -76.84997376 91.62554761 -77.61987305 95.26074219 C-78.27987305 95.26074219 -78.93987305 95.26074219 -79.61987305 95.26074219 C-81.99662168 102.2310845 -84.13082021 109.25089981 -86.18237305 116.32324219 C-86.48594727 117.36029297 -86.78952148 118.39734375 -87.10229492 119.46582031 C-90.36754736 130.1499742 -90.36754736 130.1499742 -92.18237305 141.13574219 C-92.39031285 143.5716085 -92.52101539 145.06302688 -93.61987305 147.26074219 C-93.71734476 149.24842954 -93.75064295 151.23941742 -93.75268555 153.22949219 C-93.75461914 155.04707031 -93.75461914 155.04707031 -93.7565918 156.90136719 C-93.75079102 158.81175781 -93.75079102 158.81175781 -93.74487305 160.76074219 C-93.74874023 162.00339844 -93.75260742 163.24605469 -93.7565918 164.52636719 C-93.74649766 174.09560856 -93.51590009 183.08998989 -90.61987305 192.26074219 C-90.20082768 193.86428913 -89.78446243 195.4685374 -89.36987305 197.07324219 C-87.33927701 204.57082755 -84.79381614 211.90253045 -82.29907227 219.25537109 C-81.39637567 221.92062983 -80.50718118 224.59032681 -79.61987305 227.26074219 C-78.95987305 227.26074219 -78.29987305 227.26074219 -77.61987305 227.26074219 C-76.23561459 229.48772503 -74.95027876 231.71867375 -73.68237305 234.01074219 C-69.22016714 241.77986042 -63.93794571 247.92352385 -57.61987305 254.26074219 C-56.33983398 255.55044922 -56.33983398 255.55044922 -55.03393555 256.86621094 C-45.20058249 266.62000612 -34.01371586 275.83061358 -20.79174805 280.47558594 C-18.70632956 281.22948722 -16.87658695 282.13889487 -14.93237305 283.19824219 C-5.19601781 288.17460153 5.57747238 290.95675311 16.38012695 292.26074219 C17.01772949 292.34420898 17.65533203 292.42767578 18.31225586 292.51367188 C32.95078897 294.4106888 47.63645668 294.85399744 62.38012695 295.26074219 C60.1578087 297.82089815 58.61412763 298.70429659 55.29418945 299.31933594 C54.09971191 299.55305908 54.09971191 299.55305908 52.88110352 299.79150391 C52.05578125 299.94635254 51.23045898 300.10120117 50.38012695 300.26074219 C48.78289461 300.60170611 47.18652732 300.94674831 45.59106445 301.29589844 C43.979198 301.63887649 42.36721831 301.98132281 40.75512695 302.32324219 C39.94817383 302.49662109 39.1412207 302.67 38.30981445 302.84863281 C37.51575195 303.01685547 36.72168945 303.18507813 35.90356445 303.35839844 C35.20150879 303.50801025 34.49945313 303.65762207 33.77612305 303.81176758 C27.47694414 304.99214153 21.43230661 305.4201714 15.04418945 305.42871094 C14.16540131 305.43203934 13.28661316 305.43536774 12.38119507 305.438797 C10.5305839 305.44383682 8.67996373 305.44620624 6.8293457 305.44604492 C4.02059748 305.44823015 1.2122433 305.46641389 -1.59643555 305.48535156 C-3.40372589 305.48828648 -5.21101807 305.49027062 -7.01831055 305.49121094 C-7.84672455 305.49839645 -8.67513855 305.50558197 -9.52865601 305.51298523 C-23.42122015 305.45939509 -23.42122015 305.45939509 -26.61987305 302.26074219 C-28.05093556 301.95772895 -29.49042826 301.6943157 -30.93237305 301.44824219 C-40.32329306 299.61554127 -48.68855003 296.55548448 -56.9519043 291.72558594 C-59.68667118 290.1616066 -59.68667118 290.1616066 -63.00268555 288.85449219 C-66.85789313 287.15586941 -70.19897149 285.1686549 -73.68237305 282.82324219 C-74.32650146 282.39003662 -74.97062988 281.95683105 -75.63427734 281.51049805 C-94.35174665 268.65237072 -109.28062046 251.91544667 -120.61987305 232.26074219 C-120.61987305 231.60074219 -120.61987305 230.94074219 -120.61987305 230.26074219 C-121.27987305 230.26074219 -121.93987305 230.26074219 -122.61987305 230.26074219 C-125.88813333 224.20840833 -128.18196564 218.0482242 -130.3737793 211.53027344 C-131.48196627 208.30730533 -131.48196627 208.30730533 -133.14331055 205.81933594 C-135.03678577 202.53831406 -135.84174779 199.16662445 -136.68237305 195.51074219 C-136.8522876 194.79990479 -137.02220215 194.08906738 -137.19726562 193.35668945 C-137.67994141 191.32657779 -138.15115988 189.29411468 -138.61987305 187.26074219 C-138.94858398 185.87435547 -138.94858398 185.87435547 -139.28393555 184.45996094 C-140.84851589 177.69957275 -141.7444852 171.0958188 -141.7878418 164.13964844 C-141.79212189 163.48243805 -141.79640198 162.82522766 -141.80081177 162.14810181 C-141.81073557 160.03974464 -141.81087767 157.93161811 -141.80737305 155.82324219 C-141.80643646 155.10254547 -141.80549988 154.38184875 -141.80453491 153.63931274 C-141.73763068 129.96872652 -137.4056917 108.82408777 -127.61987305 87.26074219 C-127.09780273 86.08125 -126.57573242 84.90175781 -126.0378418 83.68652344 C-119.52754292 69.7947178 -110.30639666 57.22980219 -99.61987305 46.26074219 C-98.52210539 45.08897155 -97.42445882 43.91708746 -96.3269043 42.74511719 C-87.59417506 33.57487176 -78.24535944 26.13082217 -67.61987305 19.26074219 C-66.71495117 18.65746094 -65.8100293 18.05417969 -64.87768555 17.43261719 C-62.61987305 16.26074219 -62.61987305 16.26074219 -58.61987305 16.26074219 C-58.61987305 15.60074219 -58.61987305 14.94074219 -58.61987305 14.26074219 C-50.90656248 10.36479056 -43.23642174 6.89328632 -34.93237305 4.44824219 C-34.28147705 4.25399658 -33.63058105 4.05975098 -32.95996094 3.85961914 C-22.04547319 0.79029858 -11.28625028 -0.06583119 0 0 Z " fill="#1B3D85" transform="translate(281.619873046875,80.7392578125)"/>
<path d="M0 0 C2.23046875 0.02734375 2.23046875 0.02734375 5.91796875 0.46484375 C5.46374682 6.40558851 4.59806507 11.73275041 2.91796875 17.46484375 C2.58641929 19.35743859 2.27596417 21.25378568 1.98046875 23.15234375 C1.15821816 28.35129829 -0.0328312 33.36415355 -1.36328125 38.453125 C-2.0928841 41.51031957 -2.60955036 44.54578187 -3.08203125 47.65234375 C-3.89073001 52.85405863 -5.27117136 57.52613495 -7.08203125 62.46484375 C-9.39203125 62.46484375 -11.70203125 62.46484375 -14.08203125 62.46484375 C-14.18 61.32789063 -14.27796875 60.1909375 -14.37890625 59.01953125 C-15.31303493 49.06667695 -16.87472399 39.97221885 -20.08203125 30.46484375 C-20.283125 29.75972656 -20.48421875 29.05460937 -20.69140625 28.328125 C-22.938281 21.57231915 -29.42510562 17.07983776 -35.26953125 13.52734375 C-44.50499094 10.03839231 -56.15844634 9.89600784 -65.33203125 13.46484375 C-79.3526296 20.19322741 -89.31763048 30.68848662 -97.51953125 43.65234375 C-98.1393689 44.63170898 -98.1393689 44.63170898 -98.77172852 45.63085938 C-101.48797723 50.09002032 -103.37505841 54.53053962 -105.08203125 59.46484375 C-105.74203125 59.46484375 -106.40203125 59.46484375 -107.08203125 59.46484375 C-107.24058594 60.02429688 -107.39914062 60.58375 -107.5625 61.16015625 C-109.00094158 66.10330908 -110.62005636 70.90509878 -112.45703125 75.71484375 C-115.95160871 85.39619582 -118.05698088 95.38855347 -120.08203125 105.46484375 C-120.33210938 106.68300781 -120.5821875 107.90117187 -120.83984375 109.15625 C-122.19669924 117.24960634 -122.33212018 125.39395374 -122.43148804 133.58691406 C-122.4562777 135.53075533 -122.49609225 137.47438687 -122.53637695 139.41796875 C-122.55173414 148.13630262 -120.96845345 155.27757522 -118.08203125 163.46484375 C-117.35288133 166.12117673 -116.71301892 168.78314613 -116.08203125 171.46484375 C-115.42203125 171.46484375 -114.76203125 171.46484375 -114.08203125 171.46484375 C-112.78515625 173.0390625 -112.78515625 173.0390625 -111.33203125 175.15234375 C-107.21395362 180.80970282 -102.6951272 184.87647654 -96.08203125 187.46484375 C-92.18008629 187.90348646 -88.31725096 187.88340264 -84.39453125 187.83984375 C-83.36908203 187.85144531 -82.34363281 187.86304688 -81.28710938 187.875 C-74.15348194 187.84796161 -65.23485104 187.72493482 -59.37280273 183.12304688 C-57.88669784 181.21390664 -57.23410525 179.57578697 -56.51171875 177.26953125 C-56.25519531 176.47160156 -55.99867188 175.67367187 -55.734375 174.8515625 C-55.47785156 174.02269531 -55.22132813 173.19382812 -54.95703125 172.33984375 C-54.43608876 170.69061607 -53.91277679 169.04213434 -53.38671875 167.39453125 C-53.15968262 166.66476074 -52.93264648 165.93499023 -52.69873047 165.18310547 C-52.08203125 163.46484375 -52.08203125 163.46484375 -51.08203125 162.46484375 C-50.75497641 160.99309696 -50.47101973 159.51170003 -50.20703125 158.02734375 C-49.53250852 154.47351506 -48.69846073 151.09184873 -47.58203125 147.65234375 C-45.96598753 142.52671013 -45.2191964 137.37318177 -44.51171875 132.0546875 C-44.08203125 129.46484375 -44.08203125 129.46484375 -43.08203125 128.46484375 C-42.90362691 126.17775855 -42.81408994 123.88344383 -42.76953125 121.58984375 C-42.73214844 120.33429688 -42.69476563 119.07875 -42.65625 117.78515625 C-42.77562606 114.48924278 -42.77562606 114.48924278 -44.6484375 112.59375 C-47.86197023 111.1030422 -50.81948099 110.70015073 -54.33203125 110.27734375 C-56.22695313 110.03951172 -56.22695313 110.03951172 -58.16015625 109.796875 C-59.124375 109.68730469 -60.08859375 109.57773438 -61.08203125 109.46484375 C-61.08203125 106.82484375 -61.08203125 104.18484375 -61.08203125 101.46484375 C-36.66203125 101.46484375 -12.24203125 101.46484375 12.91796875 101.46484375 C12.91796875 104.10484375 12.91796875 106.74484375 12.91796875 109.46484375 C12.03753906 109.56539063 11.15710938 109.6659375 10.25 109.76953125 C3.39463419 110.71554743 3.39463419 110.71554743 -1.98828125 114.64453125 C-3.27101445 117.21781918 -4.23579457 119.71880572 -5.08203125 122.46484375 C-5.47390625 123.55796875 -5.86578125 124.65109375 -6.26953125 125.77734375 C-7.00443847 129.11269189 -7.53017378 132.39919865 -8.01953125 135.77734375 C-8.73864673 140.73187957 -9.83827041 145.28894814 -11.375 150.04296875 C-12.08588968 152.47806046 -12.5093219 154.8340375 -12.89453125 157.33984375 C-13.27248499 159.38489577 -13.67191848 161.42599743 -14.08203125 163.46484375 C-14.22882324 164.23280273 -14.37561523 165.00076172 -14.52685547 165.79199219 C-17.8756002 182.35019854 -17.8756002 182.35019854 -23.203125 186.16796875 C-26.83985068 188.00027304 -30.19930913 189.26000783 -34.08203125 190.46484375 C-35.41234375 191.02751953 -35.41234375 191.02751953 -36.76953125 191.6015625 C-44.76232439 194.96103337 -53.3999018 196.426921 -61.87988281 198.04199219 C-63.71934881 198.39520229 -65.5537802 198.77450251 -67.38671875 199.16015625 C-81.9559148 201.9039571 -98.96406053 202.27469033 -113.08203125 197.46484375 C-114.56123047 196.97177734 -114.56123047 196.97177734 -116.0703125 196.46875 C-132.26731351 190.3975006 -146.73818196 178.34490163 -154.08203125 162.46484375 C-154.46912658 160.80983738 -154.81801224 159.14388599 -155.08203125 157.46484375 C-155.74203125 157.46484375 -156.40203125 157.46484375 -157.08203125 157.46484375 C-161.9962472 145.88133474 -163.4750083 133.97058003 -163.45703125 121.46484375 C-163.45541992 120.28656006 -163.45380859 119.10827637 -163.45214844 117.89428711 C-163.31050938 107.68586002 -161.88044002 98.26173351 -159.08203125 88.46484375 C-158.77007812 87.34078125 -158.458125 86.21671875 -158.13671875 85.05859375 C-156.20116284 78.74770556 -153.49425196 72.98439446 -150.44921875 67.13671875 C-148.9775567 64.35874903 -148.9775567 64.35874903 -147.64453125 60.90234375 C-137.119013 37.7462036 -114.93870888 15.51946421 -91.03637695 6.31152344 C-68.18125297 -1.6172691 -40.60902528 -1.09865544 -17.81640625 6.5625 C-13.74789131 7.90510993 -11.37131597 8.07759871 -7.08203125 7.46484375 C-5.61911394 5.75455266 -4.58103139 3.96313608 -3.4453125 2.0234375 C-2.08203125 0.46484375 -2.08203125 0.46484375 0 0 Z " fill="#1C3D86" transform="translate(375.08203125,125.53515625)"/>
<path d="M0 0 C0.66 0.33 1.32 0.66 2 1 C-3.28 6.28 -8.56 11.56 -14 17 C-14.66 16.67 -15.32 16.34 -16 16 C-14.27538679 14.07906479 -12.54557391 12.163278 -10.8125 10.25 C-10.32974609 9.71117187 -9.84699219 9.17234375 -9.34960938 8.6171875 C-6.43837795 5.41287909 -3.47293499 2.6158121 0 0 Z " fill="#CDD4E4" transform="translate(299,144)"/>
<path d="M0 0 C0 0.66 0 1.32 0 2 C-2.97 3.32 -5.94 4.64 -9 6 C-9 5.34 -9 4.68 -9 4 C-10.98 4.33 -12.96 4.66 -15 5 C-12.68994131 2.68994131 -11.16916343 2.27825897 -8.0625 1.375 C-7.18722656 1.11460938 -6.31195313 0.85421875 -5.41015625 0.5859375 C-3 0 -3 0 0 0 Z " fill="#BDBEC1" transform="translate(230,81)"/>
<path d="M0 0 C-2.97 2.475 -2.97 2.475 -6 5 C-6 4.34 -6 3.68 -6 3 C-7.32 3.33 -8.64 3.66 -10 4 C-6.87839899 0.56623888 -4.64008112 -1.54669371 0 0 Z " fill="#C4C5C8" transform="translate(414,374)"/>
</svg>
