<?xml version="1.0" encoding="UTF-8"?>
<svg version="1.1" xmlns="http://www.w3.org/2000/svg" width="400" height="381">
<path d="M0 0 C132 0 264 0 400 0 C400 125.73 400 251.46 400 381 C268 381 136 381 0 381 C0 255.27 0 129.54 0 0 Z " fill="#FDFDFD" transform="translate(0,0)"/>
<path d="M0 0 C-0.825 0.51046875 -1.65 1.0209375 -2.5 1.546875 C-29.80636714 18.6494104 -55.13324628 39.90339952 -73.3125 66.6875 C-73.7338623 67.30568604 -74.15522461 67.92387207 -74.58935547 68.56079102 C-77.24622713 72.56537448 -79.22750854 76.53148593 -81 81 C-81.66 81 -82.32 81 -83 81 C-83.18175781 81.66386719 -83.36351562 82.32773438 -83.55078125 83.01171875 C-83.92783203 84.33623047 -83.92783203 84.33623047 -84.3125 85.6875 C-84.55613281 86.55761719 -84.79976562 87.42773438 -85.05078125 88.32421875 C-86 91 -86 91 -87.515625 93.50390625 C-89.07497459 96.1260757 -89.75583998 98.2862608 -90.4375 101.25 C-90.68113281 102.28382812 -90.92476562 103.31765625 -91.17578125 104.3828125 C-91.44777344 105.57648438 -91.71976563 106.77015625 -92 108 C-92.52616349 110.27241625 -93.05511922 112.54415328 -93.58618164 114.81542969 C-93.94156795 116.33874391 -94.29369306 117.86282314 -94.64233398 119.38769531 C-95.8896589 124.7793178 -95.8896589 124.7793178 -97 127 C-101.15968543 155.42451712 -98.44470859 185.61693494 -87 212 C-86.08252204 214.2079964 -85.16579956 216.41630694 -84.25 218.625 C-83.86328125 219.52476562 -83.4765625 220.42453125 -83.078125 221.3515625 C-81.9194623 224.19784262 -80.94322351 227.07600713 -80 230 C-79.34 230 -78.68 230 -78 230 C-76.39096865 232.31700515 -75.15147707 234.28589379 -74.5625 237.0625 C-74.12070787 239.16543139 -74.12070787 239.16543139 -72.21875 240.78125 C-69.82239793 243.17760207 -67.92787863 245.69561393 -65.9375 248.4375 C-48.51577942 271.95755051 -24.1257421 296.19846194 5 304 C5 304.66 5 305.32 5 306 C5.71542969 306.17015625 6.43085938 306.3403125 7.16796875 306.515625 C12.76338664 307.87647696 18.26521347 309.36730233 23.75 311.125 C28.54869854 312.63794707 32.98979745 313.60704294 38 314 C38 314.66 38 315.32 38 316 C50.18807631 316.79272041 62.36818827 317.12835991 74.57992554 317.17724609 C76.08826646 317.18398504 77.59659672 317.19413637 79.10488892 317.20800781 C92.64381204 317.32254808 105.64588037 315.87350897 118.9375 313.1875 C119.77812988 313.01790771 120.61875977 312.84831543 121.48486328 312.67358398 C130.89639958 310.70209231 139.92813356 307.85132606 148.9609375 304.5703125 C149.59854004 304.33884521 150.23614258 304.10737793 150.89306641 303.86889648 C152.63583852 303.22939123 154.37283863 302.57421796 156.109375 301.91796875 C159 301 159 301 163 301 C163 300.34 163 299.68 163 299 C165.5598501 297.84791705 168.12258513 296.70320627 170.6875 295.5625 C171.7693457 295.07426758 171.7693457 295.07426758 172.87304688 294.57617188 C176.56546832 292.9407158 179.96466087 291.56510666 184 291 C177.76316562 299.38746692 169.01850144 305.36093738 160.625 311.4375 C160.04242432 311.86256836 159.45984863 312.28763672 158.85961914 312.72558594 C155.69080671 314.98322221 152.68501677 316.73715718 149 318 C149 318.66 149 319.32 149 320 C142.25 323 142.25 323 140 323 C140 323.66 140 324.32 140 325 C136.09375 326.46484375 132.1875 327.9296875 128.28125 329.39453125 C127.57154053 329.66080322 126.86183105 329.9270752 126.13061523 330.20141602 C124.73724679 330.72366973 123.3435425 331.24502849 121.94946289 331.76538086 C121.2868042 332.01296143 120.62414551 332.26054199 119.94140625 332.515625 C118.95261475 332.88457886 118.95261475 332.88457886 117.94384766 333.26098633 C116.07666416 333.97085375 114.22344404 334.71712431 112.37109375 335.46484375 C71.81823949 351.10030916 23.31597953 346.4049102 -16.78076172 332.7331543 C-18.77952582 332.07283652 -20.803017 331.48853191 -22.828125 330.9140625 C-28.08769507 329.39837359 -33.00445566 327.2066082 -37.6875 324.375 C-40.3605932 322.78559323 -43.03110455 321.89757304 -46 321 C-46 320.34 -46 319.68 -46 319 C-46.55977539 318.84144531 -47.11955078 318.68289063 -47.69628906 318.51953125 C-53.40311216 316.77985128 -57.91693647 314.46659965 -62.75 311 C-63.43392822 310.51869629 -64.11785645 310.03739258 -64.82250977 309.54150391 C-83.08681677 296.49466174 -99.31757352 280.29793317 -111 261 C-111 260.34 -111 259.68 -111 259 C-111.66 259 -112.32 259 -113 259 C-116.79154476 253.75098122 -119.54827503 247.96941731 -122 242 C-122.7699469 240.58285137 -123.54089101 239.16624434 -124.3125 237.75 C-135.54856579 215.44708628 -139.3804912 188.80866065 -139.31567383 164.13964844 C-139.31251177 161.63432284 -139.33609009 159.13018117 -139.36132812 156.625 C-139.40160197 145.77977301 -138.25912166 135.60411023 -136 125 C-135.34 125 -134.68 125 -134 125 C-133.89042969 124.34515625 -133.78085938 123.6903125 -133.66796875 123.015625 C-131.83082759 112.44086123 -129.7956588 102.81209917 -124.73046875 93.26953125 C-123.4684986 90.88517682 -122.27094596 88.50796579 -121.11328125 86.07421875 C-117.12309598 77.72831237 -112.79020299 70.26831623 -107 63 C-106.03900391 61.73542969 -106.03900391 61.73542969 -105.05859375 60.4453125 C-93.70069251 45.91926803 -80.48426684 33.96072896 -65 24 C-63.95972656 23.32420898 -63.95972656 23.32420898 -62.8984375 22.63476562 C-59.35735419 20.37019643 -55.95230718 18.35711519 -52 16.875 C-51.16597656 16.5553125 -50.33195312 16.235625 -49.47265625 15.90625 C-47.85847829 15.31463975 -46.24137598 14.73093138 -44.62109375 14.15625 C-40.57609677 13.00964419 -40.57609677 13.00964419 -38 10 C-35.9427757 9.13847679 -33.84510493 8.37290826 -31.734375 7.65234375 C-31.10396301 7.43558487 -30.47355103 7.21882599 -29.82403564 6.99549866 C-28.48690708 6.53737696 -27.14854624 6.08283884 -25.80908203 5.6315918 C-23.76960856 4.94410981 -21.73421022 4.2455453 -19.69921875 3.54492188 C-4.71378872 -1.57126291 -4.71378872 -1.57126291 0 0 Z " fill="#9D9EA3" transform="translate(185,21)"/>
<path d="M0 0 C0 0.66 0 1.32 0 2 C0.78761719 2.01417969 1.57523438 2.02835938 2.38671875 2.04296875 C11.12163463 2.42544436 18.04636645 4.46063307 26 8 C26.94875 8.41765625 27.8975 8.8353125 28.875 9.265625 C31.59502063 10.48654335 34.29787393 11.74004165 37 13 C39.06161765 13.93943875 41.12409847 14.8769859 43.1875 15.8125 C44.79166667 16.54166667 46.39583333 17.27083333 48 18 C48 18.66 48 19.32 48 20 C48.886875 20.226875 49.77375 20.45375 50.6875 20.6875 C54.43380532 22.17188513 56.33729434 24.02403485 59 27 C53.75504034 26.27249569 48.53170072 25.45604183 43.3125 24.5625 C42.56677734 24.44068359 41.82105469 24.31886719 41.05273438 24.19335938 C35.38714823 23.2179284 35.38714823 23.2179284 33.16235352 21.96557617 C30.21544771 20.64966644 27.7600818 20.74071113 24.5390625 20.734375 C23.26160156 20.73179688 21.98414063 20.72921875 20.66796875 20.7265625 C20.00200684 20.73075195 19.33604492 20.73494141 18.64990234 20.73925781 C16.66636454 20.74978056 14.68274911 20.73840447 12.69921875 20.7265625 C-0.10375908 20.75214288 -12.14814473 22.30753153 -24.375 26.125 C-25.36105225 26.43066895 -26.34710449 26.73633789 -27.36303711 27.05126953 C-36.07987246 29.85308413 -44.08877723 33.40948471 -52 38 C-52.60634277 38.34788574 -53.21268555 38.69577148 -53.83740234 39.05419922 C-62.92599831 44.35123368 -70.49956842 50.66006268 -78 58 C-79.18529297 59.10988281 -79.18529297 59.10988281 -80.39453125 60.2421875 C-90.09559497 69.51851112 -98.38110581 80.34566146 -103.625 92.75 C-105 96 -105 96 -106.3984375 98.12109375 C-108.56551338 102.01654478 -109.72759728 106.05458985 -111 110.3125 C-111.49783184 111.95508577 -111.99781375 113.59702151 -112.5 115.23828125 C-112.74621094 116.04861816 -112.99242187 116.85895508 -113.24609375 117.69384766 C-113.92330042 119.76538076 -114.71298244 121.72567134 -115.5625 123.73046875 C-119.61583268 134.47499615 -119.32229665 146.44944293 -119.26074219 157.77783203 C-119.24997944 160.12949193 -119.26072859 162.48039366 -119.2734375 164.83203125 C-119.28589542 176.83350284 -117.76356223 187.96037161 -114.625 199.5625 C-114.29846436 200.78066406 -114.29846436 200.78066406 -113.96533203 202.0234375 C-111.34467614 213.51699575 -111.34467614 213.51699575 -105 223 C-103.1086401 226.085903 -103 227.17320731 -103 231 C-102.34 231 -101.68 231 -101 231 C-99.51953125 232.87109375 -99.51953125 232.87109375 -97.8125 235.4375 C-80.53603572 260.69590363 -58.00737669 277.61238591 -28.4375 285.7265625 C-25.15368308 286.63286346 -22.14608832 287.72279555 -19.0625 289.1875 C-3.32769247 295.75507184 16.30279403 294.6406855 33 295 C15.40212594 306.73191604 -12.1025236 304.43399089 -32 304 C-32.8976709 303.98984863 -33.7953418 303.97969727 -34.72021484 303.96923828 C-60.23944288 303.66751748 -85.92875875 292.44476796 -106 277 C-106.81597656 276.38640625 -107.63195312 275.7728125 -108.47265625 275.140625 C-118.66287525 267.26564896 -127.04833318 258.08683662 -135 248 C-135.67546875 247.16855469 -136.3509375 246.33710938 -137.046875 245.48046875 C-137.67078125 244.70316406 -138.2946875 243.92585937 -138.9375 243.125 C-139.75541016 242.10792969 -139.75541016 242.10792969 -140.58984375 241.0703125 C-142.13237576 238.80565332 -143.07275266 236.57120761 -144 234 C-144.66 234 -145.32 234 -146 234 C-146.50403768 232.70990357 -147.00309926 231.41786211 -147.5 230.125 C-147.7784375 229.40570313 -148.056875 228.68640625 -148.34375 227.9453125 C-149 226 -149 226 -149 224 C-149.99 223.67 -150.98 223.34 -152 223 C-165.65929992 197.13533125 -167.67940402 167.55620029 -167 139 C-166.98453125 138.09813965 -166.9690625 137.1962793 -166.953125 136.26708984 C-166.70848141 123.68068701 -164.2046903 112.49369109 -159 101 C-158.32313289 99.14953266 -157.65734319 97.2949925 -157 95.4375 C-155.57439862 91.45882542 -153.92466288 87.76564476 -152 84 C-150.94423564 81.35090319 -149.97106585 78.6819914 -149 76 C-148.34 76 -147.68 76 -147 76 C-146.76152344 74.98292969 -146.52304688 73.96585937 -146.27734375 72.91796875 C-145.11309435 68.87004137 -143.05693404 65.67079898 -140.5625 62.3125 C-140.12147949 61.70873535 -139.68045898 61.1049707 -139.22607422 60.48291016 C-134.99155758 54.79562169 -130.34961176 49.56245056 -125.42089844 44.47216797 C-123.98663861 42.9861565 -122.57542224 41.48039917 -121.1640625 39.97265625 C-108.71669172 26.87957023 -91.37015993 12.60790589 -73.30859375 8.73046875 C-70.75585144 8.01947534 -70.75585144 8.01947534 -67.8046875 6.09765625 C-49.2943686 -4.75611045 -20.53105357 -2.80497472 0 0 Z " fill="#1A3C85" transform="translate(264,20)"/>
<path d="M0 0 C2.08428706 0.02393463 4.16731609 0.02049139 6.25170898 0.01391602 C17.17237327 0.05923673 17.17237327 0.05923673 22.12475586 2.33618164 C23.53336637 2.68319335 24.95070266 2.99678241 26.37475586 3.27368164 C29.60134976 3.94254439 32.59578418 4.82390449 35.68725586 5.96118164 C40.06367535 7.4634202 43.50798422 7.81377871 48.12475586 7.33618164 C50.78330783 5.56381366 51.83243689 3.21904703 53.12475586 0.33618164 C55.76475586 0.33618164 58.40475586 0.33618164 61.12475586 0.33618164 C60.85718115 8.5373465 59.89066533 16.32283903 58.18725586 24.33618164 C57.93250488 25.53658081 57.93250488 25.53658081 57.67260742 26.76123047 C56.96689838 29.96145297 56.22151554 33.05334566 55.15991211 36.15649414 C53.55522801 41.08559925 52.57314109 46.14380485 51.49975586 51.21118164 C51.27030273 52.28110352 51.04084961 53.35102539 50.80444336 54.45336914 C50.24152056 57.08034223 49.68172152 59.70794026 49.12475586 62.33618164 C47.14475586 62.33618164 45.16475586 62.33618164 43.12475586 62.33618164 C40.82437226 56.77275392 39.62557302 51.93545897 39.12475586 45.96118164 C37.98741731 35.08987518 36.26537871 26.27289679 28.12475586 18.33618164 C18.41609736 11.41348602 7.75453725 9.99542512 -3.87524414 11.33618164 C-11.6025485 13.34787093 -17.83970676 17.21937299 -23.87524414 22.33618164 C-24.4952832 22.8015332 -25.11532227 23.26688477 -25.75415039 23.74633789 C-34.22326701 30.43608455 -41.96611766 40.67215623 -45.85571289 50.76977539 C-47.34712951 54.52403102 -49.1319166 58.13104256 -50.87524414 61.77368164 C-56.78467829 74.24252745 -56.78467829 74.24252745 -60.30883789 87.52758789 C-60.99003975 90.90540954 -61.96964903 94.15439082 -62.93774414 97.46118164 C-65.12283114 105.39253192 -65.71195305 113.11875174 -65.87524414 121.33618164 C-65.92189209 122.90335938 -65.92189209 122.90335938 -65.96948242 124.50219727 C-66.41136554 140.30340476 -65.88548479 154.3054597 -60.87524414 169.33618164 C-59.89333302 170.35394907 -58.89114323 171.35233762 -57.87524414 172.33618164 C-56.94447727 173.63872034 -56.02843727 174.95187371 -55.12524414 176.27368164 C-52.17363824 180.30062135 -49.34848223 182.18902736 -44.87524414 184.33618164 C-44.87524414 184.99618164 -44.87524414 185.65618164 -44.87524414 186.33618164 C-32.87725771 189.77800033 -18.5422029 190.62438684 -7.16430664 184.87133789 C3.65986221 177.61212568 4.26866508 160.57325728 6.87475586 148.83227539 C8.15856318 143.15543987 9.5573507 137.62624158 11.50683594 132.13916016 C13.49946989 126.32501487 13.23258728 120.3987039 13.12475586 114.33618164 C7.32433708 110.46923579 1.9925994 109.28004441 -4.87524414 108.33618164 C-4.87524414 106.02618164 -4.87524414 103.71618164 -4.87524414 101.33618164 C19.21475586 101.33618164 43.30475586 101.33618164 68.12475586 101.33618164 C68.12475586 103.97618164 68.12475586 106.61618164 68.12475586 109.33618164 C67.02067383 109.44833008 67.02067383 109.44833008 65.89428711 109.56274414 C64.9184668 109.69422852 63.94264648 109.82571289 62.93725586 109.96118164 C61.49286133 110.13520508 61.49286133 110.13520508 60.01928711 110.31274414 C56.16320449 111.67616337 54.16210929 113.90354402 52.12475586 117.33618164 C51.22470576 119.93291002 50.55076967 122.23970838 49.99975586 124.89868164 C49.76011108 125.94596436 49.76011108 125.94596436 49.515625 127.0144043 C49.03661973 129.11858036 48.57949644 131.22664863 48.12475586 133.33618164 C47.60727268 135.62860713 47.08672964 137.92034539 46.56225586 140.21118164 C46.20647461 141.78125977 46.20647461 141.78125977 45.84350586 143.38305664 C45.17820776 146.11656404 44.40593944 148.77826785 43.56225586 151.46118164 C42.17798525 155.8879637 41.36163787 160.31463189 40.58959961 164.88305664 C40.03528443 167.80835021 39.0656878 170.51338581 38.12475586 173.33618164 C38.02936523 174.22692383 37.93397461 175.11766602 37.83569336 176.03540039 C37.50447599 178.98169442 37.14724305 181.55001566 36.12475586 184.33618164 C32.74723896 186.91510994 29.28407484 187.33618164 25.12475586 187.33618164 C24.79475586 188.32618164 24.46475586 189.31618164 24.12475586 190.33618164 C18.44665691 193.54602315 12.53871175 194.75309474 6.12475586 195.33618164 C5.79475586 195.66618164 5.46475586 195.99618164 5.12475586 196.33618164 C1.16113719 197.20322322 -2.86272025 197.74472796 -6.87524414 198.33618164 C-8.14239258 198.52567383 -9.40954102 198.71516602 -10.71508789 198.91040039 C-33.33199813 202.06975313 -55.5104875 201.34993933 -75.40649414 188.73071289 C-92.19010127 175.24388574 -103.48323831 159.08432032 -106.54711914 137.35961914 C-110.02747654 101.94264882 -100.5591234 65.96860445 -77.87524414 38.33618164 C-56.80729526 14.41383225 -56.80729526 14.41383225 -43.87524414 11.33618164 C-43.54524414 10.67618164 -43.21524414 10.01618164 -42.87524414 9.33618164 C-40.27952139 8.26384048 -37.71596018 7.30593984 -35.06274414 6.39868164 C-34.35698242 6.14666992 -33.6512207 5.8946582 -32.92407227 5.63500977 C-30.58720907 4.82137352 -28.23877644 4.0687546 -25.87524414 3.33618164 C-24.98716064 3.05605225 -24.09907715 2.77592285 -23.18408203 2.48730469 C-15.45575938 0.28416087 -7.98903688 -0.09822977 0 0 Z " fill="#1C3E86" transform="translate(275.875244140625,63.663818359375)"/>
<path d="M0 0 C1.00023193 0.13712402 2.00046387 0.27424805 3.03100586 0.41552734 C14.21722477 1.87899303 25.29052727 2.41125 36.5625 2.625 C38.2675948 2.66332769 39.97267332 2.70238697 41.67773438 2.7421875 C45.78501858 2.83651294 49.89239173 2.92110005 54 3 C53 6 53 6 50.6875 7.25 C47.90126985 8.0275526 46.66561622 7.98726527 44 7 C44.66 6.67 45.32 6.34 46 6 C45.41323486 5.98541748 44.82646973 5.97083496 44.22192383 5.95581055 C33.14215409 5.65141536 22.17118116 5.10956523 11.1875 3.5625 C10.29329346 3.44028076 9.39908691 3.31806152 8.4777832 3.19213867 C2.25605042 2.25605042 2.25605042 2.25605042 0 0 Z " fill="#A0AECC" transform="translate(248,310)"/>
<path d="M0 0 C0.66 0.33 1.32 0.66 2 1 C-1.94465617 4.99397385 -5.89574554 8.98142597 -9.85302734 12.96289062 C-11.19923329 14.31917443 -12.54364149 15.67724503 -13.88623047 17.03710938 C-15.81271716 18.98776601 -17.74550883 20.93197394 -19.6796875 22.875 C-20.28183075 23.48746582 -20.883974 24.09993164 -21.50436401 24.73095703 C-22.96543501 26.19242185 -24.47828173 27.60179351 -26 29 C-26.66 29 -27.32 29 -28 29 C-26.51419728 25.5443498 -24.55212648 23.3069206 -21.89453125 20.6640625 C-21.07533203 19.84679687 -20.25613281 19.02953125 -19.41210938 18.1875 C-18.55423828 17.341875 -17.69636719 16.49625 -16.8125 15.625 C-15.97396484 14.78710938 -15.13542969 13.94921875 -14.27148438 13.0859375 C-9.66819031 8.51498508 -4.98980222 4.14578967 0 0 Z " fill="#E9EAEB" transform="translate(152,43)"/>
<path d="M0 0 C-1.41539317 3.20991748 -3.11962032 5.37654845 -5.58984375 7.85546875 C-6.29173828 8.55994141 -6.99363281 9.26441406 -7.71679688 9.99023438 C-8.44962891 10.71533203 -9.18246094 11.44042969 -9.9375 12.1875 C-11.03094727 13.29254883 -11.03094727 13.29254883 -12.14648438 14.41992188 C-12.84966797 15.12052734 -13.55285156 15.82113281 -14.27734375 16.54296875 C-14.91921631 17.18258545 -15.56108887 17.82220215 -16.22241211 18.48120117 C-18 20 -18 20 -21 21 C-19.54758264 17.66765426 -17.7149914 15.45774394 -15.15625 12.890625 C-14.40472656 12.13652344 -13.65320313 11.38242188 -12.87890625 10.60546875 C-12.09386719 9.82816406 -11.30882813 9.05085938 -10.5 8.25 C-9.71496094 7.45722656 -8.92992188 6.66445313 -8.12109375 5.84765625 C-7.36957031 5.09871094 -6.61804688 4.34976563 -5.84375 3.578125 C-4.81024414 2.54800293 -4.81024414 2.54800293 -3.75585938 1.49707031 C-2 0 -2 0 0 0 Z " fill="#AEAFB3" transform="translate(105,57)"/>
<path d="M0 0 C0.66 0.33 1.32 0.66 2 1 C-11.06930693 16.35643564 -11.06930693 16.35643564 -16 18 C-12.73097569 10.6446953 -6.27087721 4.85992984 0 0 Z " fill="#CAD1E2" transform="translate(255,82)"/>
<path d="M0 0 C0.66 0.33 1.32 0.66 2 1 C-12.47409326 18.15803109 -12.47409326 18.15803109 -18 20 C-16.5735422 16.7413364 -14.83295838 14.5975146 -12.3046875 12.109375 C-11.23154297 11.04589844 -11.23154297 11.04589844 -10.13671875 9.9609375 C-9.39035156 9.23132813 -8.64398438 8.50171875 -7.875 7.75 C-7.12089844 7.00492187 -6.36679688 6.25984375 -5.58984375 5.4921875 C-3.73099228 3.6568658 -1.86762995 1.8263809 0 0 Z " fill="#D1D8E6" transform="translate(194,69)"/>
<path d="M0 0 C0.66 0.33 1.32 0.66 2 1 C-3.9236496 7.85369121 -10.14630879 14.0763504 -17 20 C-17 17 -17 17 -15.43945312 15.09887695 C-14.37114258 14.05413208 -14.37114258 14.05413208 -13.28125 12.98828125 C-12.51425781 12.23095703 -11.74726563 11.47363281 -10.95703125 10.69335938 C-10.14621094 9.90767578 -9.33539063 9.12199219 -8.5 8.3125 C-7.68917969 7.51521484 -6.87835938 6.71792969 -6.04296875 5.89648438 C-4.03517797 3.9241252 -2.0207313 1.95908508 0 0 Z " fill="#48639D" transform="translate(215,85)"/>
<path d="M0 0 C0.66 0.33 1.32 0.66 2 1 C-9.52164009 13.66970387 -9.52164009 13.66970387 -15 19 C-15.99 18.67 -16.98 18.34 -18 18 C-12.06 12.06 -6.12 6.12 0 0 Z " fill="#415D99" transform="translate(152,51)"/>
<path d="M0 0 C6.875 3.75 6.875 3.75 8 6 C2.66251619 5.26990593 -2.63500441 4.38713289 -7.9375 3.4375 C-8.71673828 3.29892578 -9.49597656 3.16035156 -10.29882812 3.01757812 C-12.1994064 2.67943843 -14.09973008 2.3398683 -16 2 C-16 1.67 -16 1.34 -16 1 C-10.72 1.33 -5.44 1.66 0 2 C0 1.34 0 0.68 0 0 Z " fill="#687EAE" transform="translate(315,41)"/>
<path d="M0 0 C0.66 0.33 1.32 0.66 2 1 C-3.59075836 4.1645802 -8.4207399 5.66990257 -14.77734375 6.60546875 C-16.96603737 6.77515708 -16.96603737 6.77515708 -18 8 C-19.84891946 8.23363881 -21.70488031 8.41303635 -23.5625 8.5625 C-25.08037109 8.68818359 -25.08037109 8.68818359 -26.62890625 8.81640625 C-27.41136719 8.87699219 -28.19382812 8.93757813 -29 9 C-28 7 -28 7 -26.25 6.40234375 C-25.5075 6.24894531 -24.765 6.09554688 -24 5.9375 C-23.18402344 5.76863281 -22.36804688 5.59976562 -21.52734375 5.42578125 C-19.19677774 5.03315112 -16.91722613 4.80548703 -14.5625 4.625 C-9.99560329 4.20690382 -6.2189599 2.62675802 -2.06640625 0.7421875 C-1.38449219 0.49726563 -0.70257813 0.25234375 0 0 Z " fill="#7085B3" transform="translate(299,252)"/>
<path d="M0 0 C0.33 0 0.66 0 1 0 C1.19392201 5.52677733 0.7479503 9.75614911 -1 15 C-1.66 15 -2.32 15 -3 15 C-3 17.31 -3 19.62 -3 22 C-3.33 22 -3.66 22 -4 22 C-4.62599202 14.17509977 -2.32514129 7.39062767 0 0 Z " fill="#7E90BA" transform="translate(102,128)"/>
<path d="M0 0 C-5.75 4 -5.75 4 -8 4 C-8 3.34 -8 2.68 -8 2 C-8.7425 2.350625 -9.485 2.70125 -10.25 3.0625 C-13.21122875 4.0720098 -14.12062561 3.87980884 -17 3 C-14.92085336 2.29994051 -12.83648414 1.61537756 -10.75 0.9375 C-9.58984375 0.55464844 -8.4296875 0.17179687 -7.234375 -0.22265625 C-4.19922915 -0.95211763 -2.84296787 -1.11889082 0 0 Z " fill="#B9BABD" transform="translate(185,21)"/>
<path d="M0 0 C0.556875 0.226875 1.11375 0.45375 1.6875 0.6875 C-1.2825 3.1625 -1.2825 3.1625 -4.3125 5.6875 C-4.3125 5.0275 -4.3125 4.3675 -4.3125 3.6875 C-5.3025 3.3575 -6.2925 3.0275 -7.3125 2.6875 C-2.88173077 -0.38942308 -2.88173077 -0.38942308 0 0 Z " fill="#BABBBE" transform="translate(367.3125,312.3125)"/>
</svg>
